<svg width="19" height="19" viewBox="0 0 19 19" fill="none" xmlns="http://www.w3.org/2000/svg">
    <path fill-rule="evenodd" clip-rule="evenodd"
        d="M14.2038 4.26007C13.8987 3.95498 13.404 3.95498 13.0989 4.26007L9.23192 8.12706L5.36494 4.26007C5.05984 3.95498 4.56518 3.95498 4.26009 4.26007C3.95499 4.56517 3.95499 5.05983 4.26009 5.36493L8.12707 9.23191L4.26007 13.0989C3.95498 13.404 3.95498 13.8987 4.26007 14.2038C4.56517 14.5089 5.05983 14.5089 5.36493 14.2038L9.23192 10.3368L13.0989 14.2038C13.404 14.5089 13.8987 14.5089 14.2038 14.2038C14.5089 13.8987 14.5089 13.404 14.2038 13.0989L10.3368 9.23191L14.2038 5.36493C14.5089 5.05983 14.5089 4.56517 14.2038 4.26007Z"
        fill="#855CFB" />
</svg>
    